<svg xmlns="http://www.w3.org/2000/svg" width="256" height="256" viewBox="0 0 100 100"><path fill="#000000" d="M25.29 62.74L25.29 62.74Q28.77 62.74 30.19 61.61Q31.61 60.47 31.61 59.05L31.61 59.05Q31.61 57.63 30.48 56.82Q29.34 56.00 27.28 55.29L27.28 55.29L24.30 54.30Q21.17 53.23 18.62 52.13Q16.06 51.03 14.22 49.47Q12.37 47.91 11.34 45.74Q10.31 43.57 10.31 40.45L10.31 40.45Q10.31 34.42 14.96 30.79Q19.61 27.17 27.99 27.17L27.99 27.17Q31.04 27.17 33.67 27.60Q36.30 28.03 38.18 28.91Q40.06 29.80 41.13 31.19Q42.19 32.57 42.19 34.42L42.19 34.42Q42.19 36.26 41.34 37.58Q40.49 38.89 39.28 39.81L39.28 39.81Q37.72 38.82 35.09 38.07Q32.46 37.33 29.34 37.33L29.34 37.33Q26.14 37.33 24.65 38.21Q23.16 39.10 23.16 40.45L23.16 40.45Q23.16 41.52 24.09 42.19Q25.01 42.86 26.85 43.43L26.85 43.43L30.62 44.64Q37.29 46.77 40.88 50.14Q44.46 53.51 44.46 59.19L44.46 59.19Q44.46 62.18 43.26 64.70Q42.05 67.22 39.67 69.03Q37.29 70.84 33.78 71.83Q30.26 72.83 25.72 72.83L25.72 72.83Q22.45 72.83 19.65 72.29Q16.84 71.76 14.75 70.73Q12.65 69.70 11.48 68.18Q10.31 66.65 10.31 64.66L10.31 64.66Q10.31 62.60 11.52 61.15Q12.73 59.69 14.14 58.91L14.14 58.91Q16.13 60.47 19.01 61.61Q21.88 62.74 25.29 62.74ZM63.63 71.48L63.63 71.48Q62.85 71.69 61.22 71.90Q59.59 72.12 57.88 72.12L57.88 72.12Q54.12 72.12 52.66 70.84Q51.21 69.56 51.21 66.22L51.21 66.22L51.21 28.38Q52.06 28.24 53.69 27.99Q55.33 27.74 56.96 27.74L56.96 27.74Q60.51 27.74 62.07 28.95Q63.63 30.16 63.63 33.63L63.63 33.63L63.63 45.14L77.26 45.14L77.26 28.38Q78.12 28.24 79.75 27.99Q81.38 27.74 83.02 27.74L83.02 27.74Q86.56 27.74 88.13 29.02Q89.69 30.30 89.69 33.78L89.69 33.78L89.69 71.48Q88.91 71.69 87.28 71.90Q85.64 72.12 83.94 72.12L83.94 72.12Q80.18 72.12 78.72 70.84Q77.26 69.56 77.26 66.22L77.26 66.22L77.26 54.93L63.63 54.93L63.63 71.48Z"></path></svg>